<?xml version="1.0" encoding="UTF-8" standalone="no"?>
<!-- Created with Inkscape (http://www.inkscape.org/) -->

<svg
   xmlns:dc="http://purl.org/dc/elements/1.1/"
   xmlns:cc="http://creativecommons.org/ns#"
   xmlns:rdf="http://www.w3.org/1999/02/22-rdf-syntax-ns#"
   xmlns:svg="http://www.w3.org/2000/svg"
   xmlns="http://www.w3.org/2000/svg"
   xmlns:sodipodi="http://sodipodi.sourceforge.net/DTD/sodipodi-0.dtd"
   xmlns:inkscape="http://www.inkscape.org/namespaces/inkscape"
   width="600"
   height="150"
   viewBox="0 0 158.75 39.687501"
   version="1.1"
   id="svg8"
   inkscape:version="0.92.2 5c3e80d, 2017-08-06"
   sodipodi:docname="cryptg.svg">
  <defs
     id="defs2" />
  <sodipodi:namedview
     id="base"
     pagecolor="#ffffff"
     bordercolor="#666666"
     borderopacity="1.0"
     inkscape:pageopacity="0.0"
     inkscape:pageshadow="2"
     inkscape:zoom="1.4142136"
     inkscape:cx="367.01374"
     inkscape:cy="52.235204"
     inkscape:document-units="mm"
     inkscape:current-layer="layer1"
     showgrid="false"
     units="px"
     inkscape:window-width="1366"
     inkscape:window-height="739"
     inkscape:window-x="0"
     inkscape:window-y="0"
     inkscape:window-maximized="1" />
  <metadata
     id="metadata5">
    <rdf:RDF>
      <cc:Work
         rdf:about="">
        <dc:format>image/svg+xml</dc:format>
        <dc:type
           rdf:resource="http://purl.org/dc/dcmitype/StillImage" />
        <dc:title />
      </cc:Work>
    </rdf:RDF>
  </metadata>
  <g
     inkscape:label="Layer 1"
     inkscape:groupmode="layer"
     id="layer1"
     transform="translate(0,-257.31249)">
    <g
       id="g869"
       style="fill:#53676c;stroke:#000000;stroke-opacity:1;stroke-width:1.05833333;stroke-miterlimit:4;stroke-dasharray:none">
      <path
         inkscape:connector-curvature="0"
         id="path815"
         d="M 13.229167,257.31244 A 13.229166,13.229166 0 0 0 0,270.54161 13.229166,13.229166 0 0 0 13.229167,283.77077 v -5.29166 a 7.9374999,7.9374999 0 0 1 -7.9375004,-7.9375 7.9374999,7.9374999 0 0 1 7.9375004,-7.9375 z"
         style="opacity:1;fill:#53676c;fill-opacity:1;stroke:#000000;stroke-width:1.05833333;stroke-linecap:butt;stroke-linejoin:miter;stroke-miterlimit:4;stroke-dasharray:none;stroke-dashoffset:0;stroke-opacity:1" />
    </g>
    <g
       id="g873"
       transform="translate(-4.9609375)"
       style="fill:#53676c;stroke:#000000;stroke-opacity:1;stroke-width:1.05833333;stroke-miterlimit:4;stroke-dasharray:none">
      <path
         inkscape:connector-curvature="0"
         id="path820"
         d="M 39.6875,257.31244 A 13.229167,13.229167 0 0 0 26.458333,270.54161 13.229167,13.229167 0 0 0 31.75,281.10893 v -10.56732 a 7.9374999,7.9374999 0 0 1 7.9375,-7.9375 7.9374999,7.9374999 0 0 1 7.937499,7.9375 h 5.291667 A 13.229167,13.229167 0 0 0 39.6875,257.31244 Z"
         style="opacity:1;fill:#53676c;fill-opacity:1;stroke:#000000;stroke-width:1.05833333;stroke-linecap:butt;stroke-linejoin:miter;stroke-miterlimit:4;stroke-dasharray:none;stroke-dashoffset:0;stroke-opacity:1" />
      <rect
         y="257.31247"
         x="26.458334"
         height="26.458334"
         width="5.2916665"
         id="rect833"
         style="opacity:1;fill:#53676c;fill-opacity:1;stroke:#000000;stroke-width:1.05833333;stroke-linecap:butt;stroke-linejoin:miter;stroke-miterlimit:4;stroke-dasharray:none;stroke-dashoffset:0;stroke-opacity:1" />
    </g>
    <g
       id="g884"
       transform="translate(-1.6536539)"
       style="fill:#53676c;stroke:#000000;stroke-opacity:1;stroke-width:1.05833333;stroke-miterlimit:4;stroke-dasharray:none">
      <path
         id="path885"
         d="M 92.604167,257.31244 A 13.229167,13.229167 0 0 0 79.375,270.54161 13.229167,13.229167 0 0 0 92.604167,283.77078 13.229167,13.229167 0 0 0 105.83333,270.54161 13.229167,13.229167 0 0 0 92.604167,257.31244 Z m 0,5.29167 a 7.9374999,7.9374999 0 0 1 7.937493,7.9375 7.9374999,7.9374999 0 0 1 -7.937493,7.9375 7.9374999,7.9374999 0 0 1 -7.9375,-7.9375 7.9374999,7.9374999 0 0 1 7.9375,-7.9375 z"
         style="opacity:1;fill:#53676c;fill-opacity:1;stroke:#000000;stroke-width:1.05833333;stroke-linecap:butt;stroke-linejoin:miter;stroke-miterlimit:4;stroke-dasharray:none;stroke-dashoffset:0;stroke-opacity:1"
         inkscape:connector-curvature="0" />
      <rect
         style="opacity:1;fill:#53676c;fill-opacity:1;stroke:#000000;stroke-width:1.05833333;stroke-linecap:butt;stroke-linejoin:miter;stroke-miterlimit:4;stroke-dasharray:none;stroke-dashoffset:0;stroke-opacity:1"
         id="rect887"
         width="5.2916665"
         height="39.6875"
         x="79.375"
         y="257.31247" />
    </g>
    <g
       id="g888"
       style="fill:#53676c;stroke:#000000;stroke-opacity:1;stroke-width:1.05833333;stroke-miterlimit:4;stroke-dasharray:none">
      <rect
         style="opacity:1;fill:#53676c;fill-opacity:1;stroke:#000000;stroke-width:1.05833333;stroke-linecap:butt;stroke-linejoin:miter;stroke-miterlimit:4;stroke-dasharray:none;stroke-dashoffset:0;stroke-opacity:1"
         id="rect893"
         width="5.2916665"
         height="26.458334"
         x="116.41666"
         y="257.31247" />
      <rect
         transform="rotate(90)"
         y="-132.29166"
         x="257.31247"
         height="26.458334"
         width="5.2916665"
         id="rect906"
         style="opacity:1;fill:#53676c;fill-opacity:1;stroke:#000000;stroke-width:1.05833333;stroke-linecap:butt;stroke-linejoin:miter;stroke-miterlimit:4;stroke-dasharray:none;stroke-dashoffset:0;stroke-opacity:1" />
    </g>
    <g
       id="g880"
       transform="translate(-3.3668891)"
       style="fill:#53676c;stroke:#000000;stroke-opacity:1;stroke-width:1.05833333;stroke-miterlimit:4;stroke-dasharray:none">
      <path
         inkscape:connector-curvature="0"
         id="rect839"
         d="m 52.916675,261.09227 3.779762,-3.77977 9.4494,9.4494 -3.779761,3.77977 z"
         style="opacity:1;fill:#53676c;fill-opacity:1;stroke:#000000;stroke-width:1.05833333;stroke-linecap:butt;stroke-linejoin:miter;stroke-miterlimit:4;stroke-dasharray:none;stroke-dashoffset:0;stroke-opacity:1" />
      <path
         inkscape:connector-curvature="0"
         id="rect852"
         d="m 79.374999,261.09226 -3.779762,-3.77976 -9.4494,9.4494 3.779762,3.77976 z"
         style="opacity:1;fill:#53676c;fill-opacity:1;stroke:#000000;stroke-width:1.05833333;stroke-linecap:butt;stroke-linejoin:miter;stroke-miterlimit:4;stroke-dasharray:none;stroke-dashoffset:0;stroke-opacity:1" />
      <rect
         y="266.76099"
         x="63.5"
         height="17.009813"
         width="5.2916665"
         id="rect865"
         style="opacity:1;fill:#53676c;fill-opacity:1;stroke:#000000;stroke-width:1.05833333;stroke-linecap:butt;stroke-linejoin:miter;stroke-miterlimit:4;stroke-dasharray:none;stroke-dashoffset:0;stroke-opacity:1" />
      <path
         sodipodi:nodetypes="ccccc"
         inkscape:connector-curvature="0"
         style="opacity:1;fill:#53676c;fill-opacity:1;stroke:#000000;stroke-width:1.05833333;stroke-linecap:butt;stroke-linejoin:miter;stroke-miterlimit:4;stroke-dasharray:none;stroke-dashoffset:0;stroke-opacity:1"
         d="m 52.916675,261.09227 3.779762,-3.77977 9.4494,9.4494 -2.629772,4.93477 z"
         id="path940" />
      <path
         sodipodi:nodetypes="ccccc"
         inkscape:connector-curvature="0"
         style="opacity:1;fill:#53676c;fill-opacity:1;stroke:#000000;stroke-width:1.05833333;stroke-linecap:butt;stroke-linejoin:miter;stroke-miterlimit:4;stroke-dasharray:none;stroke-dashoffset:0;stroke-opacity:1"
         d="m 79.494182,261.03447 -3.898945,-3.72197 -9.330224,9.3916 2.510498,4.98506 z"
         id="path942" />
    </g>
    <g
       id="g894"
       style="fill:#53676c;stroke:#000000;stroke-opacity:1;stroke-width:1.05833333;stroke-miterlimit:4;stroke-dasharray:none">
      <path
         inkscape:connector-curvature="0"
         style="opacity:1;fill:#53676c;fill-opacity:1;stroke:#000000;stroke-width:1.05833333;stroke-linecap:butt;stroke-linejoin:miter;stroke-miterlimit:4;stroke-dasharray:none;stroke-dashoffset:0;stroke-opacity:1"
         d="m 145.52083,257.31244 a 13.229167,13.229167 0 0 1 13.22916,13.22917 13.229167,13.229167 0 0 1 -13.22916,13.22917 13.229167,13.229167 0 0 1 -13.22917,-13.22917 13.229167,13.229167 0 0 1 13.22917,-13.22917 z m 0,5.29167 a 7.9374999,7.9374999 0 0 0 -7.9375,7.9375 7.9374999,7.9374999 0 0 0 7.9375,7.9375 7.9374999,7.9374999 0 0 0 7.9375,-7.9375 7.9374999,7.9374999 0 0 0 -7.9375,-7.9375 z"
         id="path926" />
      <rect
         transform="scale(-1,1)"
         y="257.31247"
         x="-158.74998"
         height="26.458334"
         width="5.2916665"
         id="rect928"
         style="opacity:1;fill:#53676c;fill-opacity:1;stroke:#000000;stroke-width:1.05833333;stroke-linecap:butt;stroke-linejoin:miter;stroke-miterlimit:4;stroke-dasharray:none;stroke-dashoffset:0;stroke-opacity:1" />
      <path
         inkscape:connector-curvature="0"
         id="path936"
         d="m 153.45833,283.77082 a 7.9374999,7.9374999 0 0 1 -7.9375,7.9375 v 5.29166 A 13.229167,13.229167 0 0 0 158.75,283.77082 Z"
         style="opacity:1;fill:#53676c;fill-opacity:1;stroke:#000000;stroke-width:1.05833333;stroke-linecap:butt;stroke-linejoin:miter;stroke-miterlimit:4;stroke-dasharray:none;stroke-dashoffset:0;stroke-opacity:1" />
      <rect
         y="291.70831"
         x="0"
         height="5.2916665"
         width="145.52083"
         id="rect866"
         style="opacity:1;fill:#53676c;fill-opacity:1;stroke:#000000;stroke-width:1.05833333;stroke-linecap:butt;stroke-linejoin:miter;stroke-miterlimit:4;stroke-dasharray:none;stroke-dashoffset:0;stroke-opacity:1" />
    </g>
  </g>
</svg>
